<?xml version="1.0" encoding="utf-8"?>
<!-- Generator: Adobe Illustrator 27.0.0, SVG Export Plug-In . SVG Version: 6.00 Build 0)  -->
<svg version="1.1" id="Layer_1" xmlns="http://www.w3.org/2000/svg" xmlns:xlink="http://www.w3.org/1999/xlink" x="0px" y="0px"
	 viewBox="0 0 411.5 380" style="enable-background:new 0 0 411.5 380;" xml:space="preserve">
<style type="text/css">
	.st0{clip-path:url(#SVGID_00000091726849895289918480000013456547187009526454_);}
	.st1{fill:#04E061;}
	.st2{fill:#FF4053;}
	.st3{fill:#965EEB;}
	.st4{fill:#00AAFF;}
</style>
<g>
	<defs>
		<rect id="SVGID_1_" width="1494" height="380"/>
	</defs>
	<clipPath id="SVGID_00000156583510626662093660000002225901068143588769_">
		<use xlink:href="#SVGID_1_"  style="overflow:visible;"/>
	</clipPath>
	<g style="clip-path:url(#SVGID_00000156583510626662093660000002225901068143588769_);">
		<path class="st1" d="M123,379.3c67.7,0,122.6-54.9,122.6-122.6c0-67.7-54.9-122.6-122.6-122.6C55.3,134.2,0.4,189,0.4,256.7
			C0.4,324.4,55.3,379.3,123,379.3z"/>
		<path class="st2" d="M335.6,363.8c40.9,0,74.1-33.2,74.1-74.1s-33.2-74.1-74.1-74.1s-74.1,33.2-74.1,74.1S294.7,363.8,335.6,363.8
			z"/>
		<path class="st3" d="M146.4,118.2c25.3,0,45.8-20.5,45.8-45.8s-20.5-45.8-45.8-45.8c-25.3,0-45.8,20.5-45.8,45.8
			S121.1,118.2,146.4,118.2z"/>
		<path class="st4" d="M306.8,199.7c55,0,99.6-44.6,99.6-99.6c0-55-44.6-99.6-99.6-99.6c-55,0-99.6,44.6-99.6,99.6
			C207.2,155.1,251.8,199.7,306.8,199.7z"/>
	</g>
</g>
</svg>
